<?xml version="1.0" encoding="utf-8"?>
<!-- Generator: Adobe Illustrator 18.1.1, SVG Export Plug-In . SVG Version: 6.00 Build 0)  -->
<svg version="1.1" id="close" xmlns="http://www.w3.org/2000/svg" xmlns:xlink="http://www.w3.org/1999/xlink" x="0px" y="0px"
	 viewBox="0 0 25 25" enable-background="new 0 0 25 25" xml:space="preserve">
<g>
	<path fill="#D8D8D7" d="M12.5,0C5.6,0,0,5.6,0,12.5S5.6,25,12.5,25S25,19.4,25,12.5S19.4,0,12.5,0z M18.4,16.2c0.5,0.5,0.5,1.4,0,2
		c-0.3,0.3-0.6,0.4-1,0.4s-0.7-0.1-1-0.4l-4-4l-4,4c-0.3,0.3-0.6,0.4-1,0.4s-0.7-0.1-1-0.4c-0.5-0.5-0.5-1.4,0-2l4-4l-4-4
		c-0.5-0.5-0.5-1.4,0-2c0.5-0.5,1.4-0.5,2,0l4,4l4-4c0.5-0.5,1.4-0.5,2,0c0.5,0.5,0.5,1.4,0,2l-4,4L18.4,16.2z"/>
</g>
</svg>
