<?xml version="1.0" encoding="utf-8"?>
<!-- Generator: Adobe Illustrator 21.0.2, SVG Export Plug-In . SVG Version: 6.00 Build 0)  -->
<svg version="1.1" id="Layer_1" xmlns="http://www.w3.org/2000/svg" xmlns:xlink="http://www.w3.org/1999/xlink" x="0px" y="0px"
	 width="412px" height="412px" viewBox="0 0 412 412" style="enable-background:new 0 0 412 412;" xml:space="preserve">
<style type="text/css">
	.st0{fill:#6B6B6B;}
</style>
<path id="info-5-icon" class="st0" d="M206,0C92.2,0,0,92.2,0,206c0,113.8,92.2,206,206,206c113.8,0,206-92.2,206-206
	C412,92.2,319.8,0,206,0z M202,326.9c-29.7,10.4-54.2-1.5-49.3-30c4.9-28.5,33.1-89.6,37.1-101.1c4-11.5-3.7-14.7-11.9-10
	c-4.8,2.8-11.8,8.3-17.9,13.6c-1.7-3.4-4.1-7.3-5.8-11c9.9-9.9,26.5-23.3,46.1-28.1c23.4-5.8,62.6,3.5,45.8,48.3
	c-12,31.9-20.5,54-25.9,70.4c-5.4,16.4,1,19.9,10.4,13.5c7.3-5,15.1-11.8,20.9-17.1c2.6,4.3,3.5,5.7,6.1,10.6
	C247.6,296.1,221.6,319.9,202,326.9z M263.5,129.4c-13.5,11.5-33.4,11.2-44.6-0.6c-11.2-11.8-9.3-30.6,4.2-42.1
	c13.5-11.5,33.4-11.2,44.6,0.6C278.8,99.1,277,117.9,263.5,129.4z"/>
</svg>
